<svg width="48" height="38" viewBox="0 0 48 38" fill="none" xmlns="http://www.w3.org/2000/svg">
<path d="M47.8275 14.3919C47.5789 13.151 46.3743 7.86945 43.5735 6.02575C40.7728 4.18205 41.4108 2.37465 39.6034 2.05565C37.7959 1.73655 35.1371 1.34715 34.5694 2.44505C34.0018 3.54295 33.5772 5.60005 33.861 5.95425C34.1448 6.30855 35.8103 6.34375 36.8741 5.95425C37.9378 5.56485 38.753 5.24585 39.7453 6.06095C40.7375 6.87615 40.0643 12.0158 41.8365 13.4338C41.8365 13.4338 40.6308 13.008 40.3481 12.5119C40.0643 12.0157 37.3702 11.1654 35.8103 12.9013C34.2504 14.6384 33.1877 15.7725 33.1877 15.7725L35.0666 12.9013C35.0666 12.9013 34.2163 11.5547 32.0887 12.4755C29.9623 13.3974 29.4662 14.2126 28.4728 14.0002C28.4728 14.0002 28.4653 14.0056 28.4536 14.0153C27.6566 13.6013 27.0441 12.7572 27.1124 11.9443C27.1829 11.0939 27.6438 9.99485 28.2114 9.35685C28.779 8.71875 29.0618 7.19415 28.8494 6.73425C28.6371 6.27335 28.3181 6.52195 28.3181 6.52195C29.098 3.61555 27.7153 2.44505 27.7153 2.44505C28.3885 2.30315 28.6723 0.672852 28.6723 0.672852C27.7505 1.91375 23.7451 0.637652 22.2567 0.956652C20.7683 1.27565 20.5912 2.44505 20.5912 2.44505C19.1315 3.61655 19.7066 5.54135 20.0502 6.36935C19.9905 6.39065 19.9126 6.49095 19.8112 6.73425C19.457 7.58465 20.8035 9.78255 21.0873 11.3073C21.3711 12.832 20.5197 13.7891 19.5274 14.0014C18.5351 14.2137 18.039 13.3985 15.9115 12.4767C13.785 11.5548 12.9336 12.9024 12.9336 12.9024L14.8125 15.7736C14.8125 15.7736 13.7487 14.6394 12.1899 12.9024C10.63 11.1654 7.93587 12.0158 7.65313 12.513C7.36931 13.0091 6.16471 13.4348 6.16471 13.4348C7.93694 12.0168 7.26368 6.87725 8.25596 6.06205C9.24826 5.24695 10.0634 5.56595 11.1272 5.95535C12.191 6.34485 13.8565 6.30955 14.1403 5.95535C14.4241 5.60115 13.9984 3.54505 13.4318 2.44615C12.8642 1.34715 10.2064 1.73765 8.39786 2.05665C6.59043 2.37575 7.22848 4.18315 4.4277 6.02685C1.62692 7.87055 0.422315 13.1521 0.173715 14.393C-0.0748845 15.6337 3.04491 16.626 6.34183 19.0012C9.63876 21.3762 12.4737 20.9153 12.4737 20.9153V19.2124C12.4737 19.2124 13.0413 21.6579 13.9621 24.1397C14.884 26.6213 16.9048 28.606 16.9048 28.606C17.72 27.507 18.358 24.99 18.358 24.99C17.9686 28.145 15.5935 34.2417 15.5935 34.2417C19.5253 34.6716 23.457 36.9795 23.9724 37.29V37.3251C23.9724 37.3251 23.982 37.3188 24.0012 37.307C24.0204 37.3188 24.03 37.3251 24.03 37.3251V37.29C24.5453 36.9784 28.4771 34.6706 32.4088 34.2417C32.4088 34.2417 30.0338 28.145 29.6443 24.99C29.6443 24.99 30.2824 27.507 31.0975 28.606C31.0975 28.606 33.1184 26.6213 34.0391 24.1397C34.961 21.6579 35.5276 19.2124 35.5276 19.2124V20.9142C35.5276 20.9142 38.3635 21.3752 41.6605 19.0001C44.9563 16.625 48.075 15.6328 47.8275 14.3919Z" fill="white"/>
</svg>
