<svg width="20" height="20" viewBox="0 0 20 20" fill="none" xmlns="http://www.w3.org/2000/svg">
<path d="M0.833313 0.833252H4.16665L6.39998 11.9916C6.47618 12.3752 6.6849 12.7199 6.9896 12.9652C7.2943 13.2104 7.67556 13.3407 8.06665 13.3333H16.1666C16.5577 13.3407 16.939 13.2104 17.2437 12.9652C17.5484 12.7199 17.7571 12.3752 17.8333 11.9916L19.1666 4.99992H4.99998M8.33331 17.4999C8.33331 17.9602 7.96022 18.3333 7.49998 18.3333C7.03974 18.3333 6.66665 17.9602 6.66665 17.4999C6.66665 17.0397 7.03974 16.6666 7.49998 16.6666C7.96022 16.6666 8.33331 17.0397 8.33331 17.4999ZM17.5 17.4999C17.5 17.9602 17.1269 18.3333 16.6666 18.3333C16.2064 18.3333 15.8333 17.9602 15.8333 17.4999C15.8333 17.0397 16.2064 16.6666 16.6666 16.6666C17.1269 16.6666 17.5 17.0397 17.5 17.4999Z" stroke="#667085" stroke-width="1.67" stroke-linecap="round" stroke-linejoin="round"/>
</svg>
